<?xml version="1.0" encoding="UTF-8"?><svg id="Isolation_Mode" xmlns="http://www.w3.org/2000/svg" width="698.5822" height="200" xmlns:xlink="http://www.w3.org/1999/xlink" viewBox="0 0 698.5822 200"><defs><style>.cls-1{fill:#fff;}.cls-2{fill:url(#radial-gradient-5);}.cls-3{fill:url(#radial-gradient-4);}.cls-4{fill:url(#radial-gradient);}.cls-5{fill:#183962;}.cls-6{fill:url(#radial-gradient-2);}.cls-7{fill:url(#radial-gradient-3);}.cls-8{fill:#666e77;}.cls-9{fill:#9aa6a9;}</style><radialGradient id="radial-gradient" cx="19635.9126" cy="22003.9622" fx="19635.9126" fy="22003.9622" r="149.1335" gradientTransform="translate(-9254.6606 -12338.3877) rotate(4.979) scale(.5308) skewX(-.0272)" gradientUnits="userSpaceOnUse"><stop offset="0" stop-color="#fff"/><stop offset=".264" stop-color="#fbfdfe"/><stop offset=".476" stop-color="#f1f9fa"/><stop offset=".67" stop-color="#e0f1f5"/><stop offset=".852" stop-color="#c9e7ee"/><stop offset="1" stop-color="#b0dce7"/></radialGradient><radialGradient id="radial-gradient-2" cx="19614.0607" cy="21753.5896" fx="19614.0607" fy="21753.5896" r="216.4007" xlink:href="#radial-gradient"/><radialGradient id="radial-gradient-3" cx="67936.4795" cy="39518.0925" fx="67936.4795" fy="39518.0925" r="237.0019" gradientTransform="translate(34124.6284 24040.0244) rotate(-175.021) scale(.5308) skewX(-.0272)" gradientUnits="userSpaceOnUse"><stop offset="0" stop-color="#86ccd2"/><stop offset="1" stop-color="#2a376c"/></radialGradient><radialGradient id="radial-gradient-4" cx="19734.6568" cy="21904.4787" fx="19734.6568" fy="21904.4787" r="236.9024" gradientTransform="translate(-9254.6606 -12338.3877) rotate(4.979) scale(.5308) skewX(-.0272)" xlink:href="#radial-gradient-3"/><radialGradient id="radial-gradient-5" cx="82.7693" cy="72.0634" fx="82.7693" fy="72.0634" r="61.1097" gradientTransform="translate(-86.4556 -173.3853) scale(2.7329)" gradientUnits="userSpaceOnUse"><stop offset="0" stop-color="#eaf5f5"/><stop offset=".5" stop-color="#00b0b2"/><stop offset=".75" stop-color="#2d779e"/><stop offset="1" stop-color="#063266"/></radialGradient></defs><g><path class="cls-1" d="m192.7555,104.5461c-4.6145,52.6307-51.1439,91.57-103.9246,86.9635C36.0544,186.9037-2.9915,140.5015,1.6274,87.8702,6.2462,35.2344,52.7759-3.7001,105.552.9061c52.7807,4.6018,91.8223,51.004,87.2035,103.64Z"/><g><path class="cls-4" d="m57.8364,183.4717c9.5535,4.2879,19.9735,7.0732,30.9988,8.0338,52.7764,4.6066,99.3014-34.3287,103.9162-86.9594,1.2831-14.5911-.7954-28.6991-5.5865-41.5735-2.2339,20.6103-12.5566,66.9407-61.6186,78.1796-57.7236,13.2145-57.5257,29.1304-67.7099,42.3195Z"/><path class="cls-6" d="m105.5563.9101C52.7803-3.6961,6.2506,35.2384,1.6317,87.8702c-1.3252,15.131.9548,29.747,6.1374,43.0037,4.6357-17.0617,20.1329-55.1188,67.2219-63.0647,61.1266-10.3159,76.7079-28.4134,81.2006-45.781.0925-.3566.1806-.709.2691-1.0528C142.3011,9.8578,124.8437,2.5922,105.5563.9101Z"/></g><path class="cls-7" d="m17.9954,42.4752C36.2185,14.7035,71.7185-3.944,111.7022,1.6105,50.1384,1.5102,7.1802,55.6599,35.8779,99.1842c14.7569,22.3854,45.7891,38.041,55.5825,46.6074,12.1275,10.6097,13.2801,20.6861,12.1863,27.1509-1.2326,7.2952-7.2567,12.2324-10.9244,13.8894-9.6796,4.3677-20.6253,1.6784-20.8944,1.6113C13.402,173.2028-21.7444,103.0314,17.9954,42.4752Z"/><path class="cls-3" d="m176.5515,149.9407c-18.2228,27.7674-53.7901,46.9013-93.7068,40.8645,61.5681.0966,104.522-54.0495,75.8287-97.5738-14.761-22.3887-45.7935-38.041-55.5862-46.6118-12.1278-10.605-13.2764-20.6858-12.1826-27.1502,1.2286-7.2915,7.2564-12.2331,10.9248-13.8904,9.6793-4.3667,20.5029-1.4429,20.7722-1.3719,58.4258,15.2371,93.6897,85.1737,53.9498,145.7335Z"/><path class="cls-2" d="m17.663,42.6345C35.8863,14.8669,71.7898-4.43,111.7022,1.6105,42.0532,1.4595,3.4701,57.6114,34.0061,104.2691c14.685,22.435,50.1722,37.7304,58.7621,44.8244,9.6753,7.9868,11.9385,17.3804,10.8783,23.8491-1.0433,6.3768-5.6409,11.893-11.4124,14.2295-10.0792,4.0866-19.5608,1.498-20.7474,1.1786C13.28,172.8627-22.0011,103.077,17.663,42.6345Zm159.2252,107.1424c-18.2232,27.7714-54.1268,47.065-94.0435,41.0282,69.6493.1469,108.2368-56.0043,77.6964-102.662-14.6853-22.4356-50.1681-37.7311-58.7625-44.8206-9.675-7.9919-11.9341-17.3847-10.874-23.8531,1.0433-6.3768,5.6414-11.8934,11.4084-14.2298,10.0833-4.0864,19.5608-1.4936,20.7511-1.179,58.2072,15.4924,93.4842,85.278,53.8241,145.7164Z"/></g><path class="cls-9" d="m342.6628,139.5577c1.9978,1.1665,8.4211,4.2033,16.1204,4.2033,9.1637,0,17.2674-3.3554,17.2674-13.7559v-3.6741c-1.262,1.7864-6.7489,8.5121-17.5963,8.5033-15.7915,0-26.3188-11.8635-26.3188-28.6743,0-16.9054,10.9503-28.8823,26.5373-28.8823,10.3167.004,16.2214,6.1997,17.901,8.7213v-7.3455h10.8454v47.572c0,20.5895-12.525,27.4064-28.519,27.4064-7.3825,0-15.0765-2.4123-19.9183-5.2565l3.6809-8.818Zm17.268-52.0901c-9.4685,0-16.3216,7.5675-16.3216,18.5925,0,11.2383,7.0563,18.5925,16.4353,18.5925,9.8922,0,16.3216-7.7687,16.3216-18.5925,0-11.2389-6.9554-18.5925-16.4353-18.5925Z"/><path class="cls-9" d="m420.4937,88.8354c-12.0057,0-15.4841,9.1326-15.4841,21.0082v23.7947h-11.4717v-54.9846h11.2564v8.604c2.1115-5.4659,7.9085-9.9758,15.6993-9.9758v11.5536Z"/><path class="cls-9" d="m448.3986,77.2819c16.9646,0,29.1748,12.2875,29.1748,28.7783s-12.4268,28.783-29.1748,28.783c-16.8456,0-29.0572-12.0869-29.0572-28.683s12.5271-28.8783,29.0572-28.8783Zm0,47.3708c10.2218,0,17.6992-7.8788,17.6992-18.5925s-7.4774-18.5925-17.6992-18.5925c-10.3214,0-17.4806,7.9788-17.4806,18.6925,0,10.8237,7.2689,18.4925,17.4806,18.4925Z"/><path class="cls-9" d="m482.1395,111.6313v-32.9776h11.3688v33.9215c0,7.5595,4.7409,11.9688,11.0701,11.9688,7.2541,0,11.999-5.2478,11.999-12.812v-33.0783h11.4845v54.9846h-11.2719v-7.3073c-2.4216,4.4087-8.1083,8.5121-15.4834,8.5121-14.2181,0-19.167-11.2477-19.167-23.2118Z"/><path class="cls-9" d="m534.1736,78.6537h10.8326v7.2408c1.4927-1.993,7.0596-8.6127,17.7026-8.6127,15.7014,0,26.8596,11.9769,26.8596,28.673,0,17.0114-10.4344,28.8883-26.123,28.8883-10.4324,0-16.3323-6.3057-17.798-8.6214v26.8859h-11.4737v-74.4539Zm27.4771,45.9989c9.5848,0,16.3323-7.6688,16.3323-18.6978,0-11.2336-7.0644-18.4872-16.4353-18.4872-10.1061,0-16.3323,8.4068-16.3323,18.4872,0,11.8682,7.2715,18.6978,16.4353,18.6978Z"/><path class="cls-8" d="m231.5279,113.7961c2.2444,5.2565,7.1158,10.399,16.2439,10.399,7.469,0,12.9186-3.6748,12.9186-9.8671,0-15.547-37.828-12.0768-37.828-35.7079,0-11.4489,9.6077-19.8557,24.9095-19.8557,15.7727,0,22.5326,9.8711,24.552,15.0184l-10.9224,4.3087c-1.9017-3.5701-5.6854-8.6127-13.8798-8.6127-7.3425,0-11.9005,3.9854-11.9005,9.036,0,14.4905,37.9898,11.8682,37.9898,34.97,0,12.2922-10.0664,21.5294-26.4385,21.5294-16.9549,0-24.3101-10.0757-26.7963-16.5948l11.1518-4.6233Z"/><path class="cls-8" d="m280.2787,60.1364h24.8486c13.9047,0,23.5864,10.4165,23.5864,23.6518,0,13.022-10.1068,23.9289-23.4862,23.9289h-13.6962v25.9299h-11.2527V60.1364Zm23.4683,37.1434c7.6987,0,12.967-6.142,12.967-13.4916,0-7.257-5.2683-13.2521-12.8493-13.2521h-12.3334v26.7437h12.2156Z"/><g><path class="cls-5" d="m220.6204,170.0864h11.4407v3.2971h-7.7703v6.4305h6.7452v3.2642h-6.7452v6.7927h8.1009v3.2978h-11.7713v-23.0823Z"/><path class="cls-5" d="m259.7423,193.1688h-3.5708v-10.3213c0-2.6712-1.1573-4.0887-3.3068-4.0887-2.017,0-3.5049,1.4839-3.5049,4.1215v10.2884h-3.6041v-10.6506c0-2.3418-1.2565-3.7593-3.3065-3.7593-1.9511,0-3.472,1.5825-3.472,4.0558v10.3541h-3.6041v-17.2133h3.5382v2.2426c.6279-1.3188,2.3143-2.6712,4.6623-2.6712,2.4135,0,4.1332,1.1216,4.9596,2.8691,1.0251-1.8139,2.9429-2.8691,5.3238-2.8691,3.9018,0,5.8855,2.6712,5.8855,6.3976v11.2443Z"/><path class="cls-5" d="m263.3603,175.9555h3.4057v2.2754c.4631-.6265,2.2154-2.7041,5.5552-2.7041,4.9266,0,8.4315,3.7593,8.4315,9.0024,0,5.3418-3.2735,9.0682-8.2001,9.0682-3.2735,0-5.125-1.9783-5.5882-2.7041v8.4416h-3.6041v-23.3795Zm8.6303,14.4435c3.0088,0,5.125-2.4076,5.125-5.8697,0-3.5285-2.2154-5.8033-5.1583-5.8033-3.1743,0-5.125,2.6377-5.125,5.8033,0,3.7264,2.2813,5.8697,5.1583,5.8697Z"/><path class="cls-5" d="m291.583,175.5268c5.3238,0,9.1594,3.8586,9.1594,9.0353s-3.9015,9.0353-9.1594,9.0353c-5.2905,0-9.1261-3.7922-9.1261-9.0024s3.9348-9.0682,9.1261-9.0682Zm0,14.8721c3.2076,0,5.5552-2.4733,5.5552-5.8368s-2.3476-5.8362-5.5552-5.8362c-3.2402,0-5.489,2.5055-5.489,5.869,0,3.3964,2.2817,5.804,5.489,5.804Z"/><path class="cls-5" d="m314.4298,180.8364l-3.9015,12.3324h-3.9681l-5.489-17.2133h3.9021l3.769,13.1904s.033-.0657,3.9681-13.1904h3.4387c3.9021,13.1246,3.9351,13.1904,3.9351,13.1904l3.8026-13.1904h3.9015l-5.489,17.2133h-4.0003l-3.8692-12.3324Z"/><path class="cls-5" d="m336.5477,175.5268c5.2246,0,8.3,3.5943,8.3,9.0024,0,.2965,0,.5937-.0336.8902h-12.9946c.0659,3.067,2.2817,5.0453,5.3564,5.0453,2.6126,0,4.1006-1.451,4.7618-2.4069l2.3806,1.7804c-.8267,1.4181-3.1084,3.7593-7.2083,3.7593-5.3894,0-8.9606-3.7593-8.9606-8.9689,0-5.3424,3.6701-9.1017,8.3982-9.1017Zm4.6293,7.42c-.1318-2.8362-2.1162-4.4187-4.5957-4.4187s-4.3979,1.7146-4.6293,4.4187h9.2249Z"/><path class="cls-5" d="m355.9528,179.1546c-3.7696,0-4.8607,2.8684-4.8607,6.5949v7.4193h-3.6041v-17.2133h3.5376v2.7041c.6612-1.7146,2.4801-3.1327,4.9273-3.1327v3.6278Z"/><path class="cls-5" d="m359.6646,169.4599c1.2565,0,2.2487.9888,2.2487,2.2419s-.9922,2.2426-2.2487,2.2426-2.2487-.9895-2.2487-2.2426.9922-2.2419,2.2487-2.2419Zm-1.7853,6.4956h3.6041v17.2133h-3.6041v-17.2133Z"/><path class="cls-5" d="m379.556,182.8146v10.3541h-3.5712v-10.6506c0-2.3747-1.4879-3.7593-3.4723-3.7593-2.281,0-3.769,1.6818-3.769,4.0229v10.387h-3.6041v-17.2133h3.5376v2.2426c.7608-1.3517,2.546-2.6712,4.8607-2.6712,4.4638,0,6.0183,3.5285,6.0183,7.2878Z"/><path class="cls-5" d="m385.4102,195.0813c.6283.3629,2.6456,1.3188,5.0591,1.3188,2.877,0,5.423-1.0552,5.423-4.3194v-1.1545c-.3969.5608-2.1162,2.6712-5.5219,2.6712-4.9602,0-8.2664-3.7264-8.2664-9.0024,0-5.3089,3.4387-9.0682,8.3323-9.0682,3.2402,0,5.0921,1.9461,5.6208,2.737v-2.3083h3.4064v14.9379c0,6.4634-3.9351,8.6067-8.9613,8.6067-2.3146,0-4.7282-.7587-6.2491-1.6489l1.157-2.7698Zm5.423-16.3553c-2.9759,0-5.125,2.374-5.125,5.8362,0,3.5285,2.2151,5.8368,5.158,5.8368,3.1084,0,5.125-2.4405,5.125-5.8368,0-3.5285-2.1821-5.8362-5.158-5.8362Z"/><path class="cls-5" d="m411.9597,172.3612h3.5712v3.5943h3.5046v2.9677h-3.5046v8.013c0,2.6712,1.0251,3.2649,2.9429,3.2649.2973,0,.6942-.0329.6942-.0329v3.0992s-.6283.1322-1.7523.1322c-4.1995,0-5.456-2.8027-5.456-7.0235v-7.4528h-1.9178v-2.9677h1.9178v-3.5943Z"/><path class="cls-5" d="m436.0304,182.8146v10.3541h-3.5712v-10.6506c0-2.3747-1.4879-3.7593-3.4716-3.7593-2.2817,0-3.8026,1.6818-3.8026,4.0229v10.387h-3.6041v-23.841h3.6041v8.8703c.7601-1.3517,2.5124-2.6712,4.8271-2.6712,4.4638,0,6.0183,3.5285,6.0183,7.2878Z"/><path class="cls-5" d="m446.9928,175.5268c5.2246,0,8.3,3.5943,8.3,9.0024,0,.2965,0,.5937-.0336.8902h-12.9946c.0659,3.067,2.2817,5.0453,5.3564,5.0453,2.6126,0,4.1006-1.451,4.7618-2.4069l2.3806,1.7804c-.8267,1.4181-3.1084,3.7593-7.2083,3.7593-5.3894,0-8.9606-3.7593-8.9606-8.9689,0-5.3424,3.6701-9.1017,8.3982-9.1017Zm4.6293,7.42c-.1318-2.8362-2.1162-4.4187-4.5957-4.4187s-4.3979,1.7146-4.6293,4.4187h9.2249Z"/><path class="cls-5" d="m466.8957,170.0864h11.4078v3.2971h-7.737v6.6941h6.7785v3.2642h-6.7785v9.8269h-3.6707v-23.0823Z"/><path class="cls-5" d="m480.2131,186.3103v-10.3548h3.5712v10.6513c0,2.374,1.4879,3.7593,3.4716,3.7593,2.2817,0,3.7696-1.6489,3.7696-4.0229v-10.3877h3.6041v17.2133h-3.5382v-2.2426c-.7601,1.3852-2.546,2.6712-4.8607,2.6712-4.4638,0-6.0177-3.5285-6.0177-7.2871Z"/><path class="cls-5" d="m498.6254,172.3612h3.5712v3.5943h3.5046v2.9677h-3.5046v8.013c0,2.6712,1.0251,3.2649,2.9429,3.2649.2973,0,.6942-.0329.6942-.0329v3.0992s-.6283.1322-1.7523.1322c-4.1995,0-5.456-2.8027-5.456-7.0235v-7.4528h-1.9178v-2.9677h1.9178v-3.5943Z"/><path class="cls-5" d="m507.7904,186.3103v-10.3548h3.5712v10.6513c0,2.374,1.4879,3.7593,3.4716,3.7593,2.2817,0,3.7696-1.6489,3.7696-4.0229v-10.3877h3.6041v17.2133h-3.5382v-2.2426c-.7601,1.3852-2.546,2.6712-4.8607,2.6712-4.4638,0-6.0177-3.5285-6.0177-7.2871Z"/><path class="cls-5" d="m534.2847,179.1546c-3.7696,0-4.8607,2.8684-4.8607,6.5949v7.4193h-3.6041v-17.2133h3.5376v2.7041c.6612-1.7146,2.4801-3.1327,4.9273-3.1327v3.6278Z"/><path class="cls-5" d="m543.4787,175.5268c5.2246,0,8.3,3.5943,8.3,9.0024,0,.2965,0,.5937-.0336.8902h-12.9946c.0659,3.067,2.2817,5.0453,5.3564,5.0453,2.6126,0,4.1006-1.451,4.7618-2.4069l2.3806,1.7804c-.8267,1.4181-3.1084,3.7593-7.2083,3.7593-5.3894,0-8.9606-3.7593-8.9606-8.9689,0-5.3424,3.6701-9.1017,8.3982-9.1017Zm4.6293,7.42c-.1318-2.8362-2.1162-4.4187-4.5957-4.4187s-4.3979,1.7146-4.6293,4.4187h9.2249Z"/><path class="cls-5" d="m571.0534,175.5268c5.3235,0,9.159,3.8586,9.159,9.0353s-3.9015,9.0353-9.159,9.0353c-5.2905,0-9.1261-3.7922-9.1261-9.0024s3.9344-9.0682,9.1261-9.0682Zm0,14.8721c3.2073,0,5.5549-2.4733,5.5549-5.8368s-2.3476-5.8362-5.5549-5.8362c-3.2409,0-5.489,2.5055-5.489,5.869,0,3.3964,2.2817,5.804,5.489,5.804Z"/><path class="cls-5" d="m583.2387,178.9232h-1.8848v-2.9677h1.8848v-.758c0-4.3858,2.8104-5.8368,5.8852-5.8368.6949,0,1.2902.0664,1.2902.0664v3.0663s-.4635-.0657-.8597-.0657c-1.753,0-2.7115.8902-2.7115,2.8356v.6923h3.3391v2.9677h-3.3391v14.2456h-3.6041v-14.2456Z"/><path class="cls-5" d="m601.5218,170.0864h11.4407v3.2971h-7.77v6.4305h6.7455v3.2642h-6.7455v6.7927h8.1009v3.2978h-11.7717v-23.0823Z"/><path class="cls-5" d="m630.6913,182.8146v10.3541h-3.5712v-10.6506c0-2.3747-1.4879-3.7593-3.4723-3.7593-2.281,0-3.769,1.6818-3.769,4.0229v10.387h-3.6041v-17.2133h3.5376v2.2426c.7608-1.3517,2.546-2.6712,4.8607-2.6712,4.4638,0,6.0183,3.5285,6.0183,7.2878Z"/><path class="cls-5" d="m641.6537,175.5268c5.2246,0,8.3,3.5943,8.3,9.0024,0,.2965,0,.5937-.0336.8902h-12.9946c.0659,3.067,2.2817,5.0453,5.3564,5.0453,2.6126,0,4.1006-1.451,4.7618-2.4069l2.3806,1.7804c-.8267,1.4181-3.1084,3.7593-7.2083,3.7593-5.3894,0-8.9606-3.7593-8.9606-8.9689,0-5.3424,3.6701-9.1017,8.3982-9.1017Zm4.6293,7.42c-.1318-2.8362-2.1162-4.4187-4.5957-4.4187s-4.3979,1.7146-4.6293,4.4187h9.2249Z"/><path class="cls-5" d="m661.0588,179.1546c-3.7696,0-4.8607,2.8684-4.8607,6.5949v7.4193h-3.6041v-17.2133h3.5376v2.7041c.6612-1.7146,2.4801-3.1327,4.9273-3.1327v3.6278Z"/><path class="cls-5" d="m665.1809,195.0813c.6283.3629,2.6456,1.3188,5.0591,1.3188,2.877,0,5.423-1.0552,5.423-4.3194v-1.1545c-.3969.5608-2.1162,2.6712-5.5219,2.6712-4.9602,0-8.2664-3.7264-8.2664-9.0024,0-5.3089,3.4387-9.0682,8.3323-9.0682,3.2402,0,5.0921,1.9461,5.6208,2.737v-2.3083h3.4064v14.9379c0,6.4634-3.9351,8.6067-8.9613,8.6067-2.3146,0-4.7282-.7587-6.2491-1.6489l1.157-2.7698Zm5.423-16.3553c-2.9759,0-5.125,2.374-5.125,5.8362,0,3.5285,2.2151,5.8368,5.158,5.8368,3.1084,0,5.125-2.4405,5.125-5.8368,0-3.5285-2.1821-5.8362-5.158-5.8362Z"/><path class="cls-5" d="m685.2923,199.0713l2.4465-6.1991-6.8444-16.9168h3.8685l4.6623,12.531,4.5963-12.531h3.7696l-9.0272,23.1159h-3.4716Z"/></g></svg>